<?xml version="1.0" encoding="utf-8"?>
<!-- Generator: Adobe Illustrator 25.4.1, SVG Export Plug-In . SVG Version: 6.00 Build 0)  -->
<svg version="1.1" id="OBJECTS" xmlns="http://www.w3.org/2000/svg" xmlns:xlink="http://www.w3.org/1999/xlink" x="0px" y="0px"
	 viewBox="0 0 500 500" style="enable-background:new 0 0 500 500;" xml:space="preserve">
<style type="text/css">
	.st0{fill:#C3DE71;}
	.st1{fill:#A4DA21;}
	.st2{fill:#046424;}
</style>
<path class="st0" d="M250,32.7L250,32.7c-35.2,35.2-35.2,92.2,0,127.4l0,0C285.2,124.9,285.2,67.9,250,32.7z"/>
<path class="st1" d="M250,198.6L250,198.6L250,198.6c0,0-101.9-104.1-229.6-111.1c0,0,229.6,128.7,229.6,379.8l0,0v0
	C324.2,393.1,324.2,272.8,250,198.6z"/>
<path class="st2" d="M313.3,53.8c-9.9,4.7-18.9,14.2-26.8,25.6c4.4,26.2-1.4,53.7-17.5,76.2c15.3-6.2,36.3-21.1,49.3-56.9
	c17.8-49,49.5-50.8,49.5-50.8S343.6,39.4,313.3,53.8z"/>
<path class="st2" d="M181.7,98.7c13,35.7,34,50.6,49.3,56.9c-16.1-22.4-21.9-50-17.5-76.2c-7.9-11.4-17-20.9-26.8-25.6
	c-30.2-14.5-54.4-5.9-54.4-5.9S163.9,49.7,181.7,98.7z"/>
<path class="st1" d="M383.5,179.5c9.5,19.6,14.9,41.5,14.9,64.7c0,60-35.8,111.8-87.2,135.1c-2.9,12.2-6.8,24.1-12,35.6
	c74.2-21.4,128.6-89.8,128.6-170.8c0-31.3-8.1-60.6-22.4-86.2C398.2,164.6,390.9,171.7,383.5,179.5z"/>
<path class="st1" d="M250,32.7L250,32.7c-35.2,35.2-35.2,92.2,0,127.4l0,0C285.2,124.9,285.2,67.9,250,32.7z"/>
<path class="st2" d="M198,295.7c-10.9,54.7,2.5,113.3,40.1,158.6C236.1,393.3,219.9,340.2,198,295.7z"/>
<path class="st2" d="M258.4,190.6c21.5,21.6,37.1,46.9,46.8,73.9c67.9-117.3,174.3-177,174.3-177
	C373.5,93.3,285.3,166.1,258.4,190.6z"/>
<path class="st1" d="M188.7,379.2c-51.3-23.4-87.1-75.1-87.1-135.1c0-23.2,5.4-45.2,14.9-64.8c-7.4-7.7-14.7-14.9-21.9-21.5
	c-14.3,25.6-22.4,55-22.4,86.3c0,80.9,54.4,149.4,128.5,170.8C195.6,403.4,191.6,391.5,188.7,379.2z"/>
</svg>
